<svg xmlns="http://www.w3.org/2000/svg" width="1387.902" height="367.593" viewBox="0 0 1387.902 367.593">
  <defs>
    <style>
      .cls-1 {
        fill: #fff;
        fill-rule: evenodd;
      }
    </style>
  </defs>
  <path class="cls-1" d="M398.624,217.267q-0.006,65.418,0,130.837a51.2,51.2,0,0,1-15.491,37.5c-9.878,9.887-22.027,14.741-35.937,15.407-1,.048-2,0.031-3.009.031q-130.009,0-260.021,0c-15.437,0-28.842-5.008-39.641-16.162-10.11-10.44-14.839-23.021-14.83-37.523q0.071-111.237.021-222.474c0-12.9-.043-25.8.015-38.7A52.3,52.3,0,0,1,64.964,36.545a57.813,57.813,0,0,1,19.7-3.065q97.79,0.026,195.581.01c21.9,0,43.8-.078,65.693.044a50.782,50.782,0,0,1,28.842,8.66c15.526,10.553,23.673,25.233,23.8,43.987,0.169,25.55.049,51.1,0.051,76.654Q398.63,190.051,398.624,217.267Zm-202.5-13.815c0,33.623.046,67.246-.051,100.869-0.014,4.8,1.592,8.187,5.778,10.749,6.33,3.872,12.416,8.138,18.6,12.237q18.252,12.09,36.512,24.171c5.548,3.653,11.7,1.611,13.37-4.434a15.981,15.981,0,0,0,.316-4.2q0.021-81.021.012-162.04c0-11.985.117-23.971-.063-35.953-0.1-6.873-2.952-12.723-8.719-16.592q-26.286-17.629-52.818-34.9c-5.19-3.4-11.532-.569-12.732,5.5a19.345,19.345,0,0,0-.209,3.726Q196.11,153.017,196.124,203.452Zm-13.992-55.185c0-9.485-.038-18.971.023-28.456,0.018-2.754-.48-5.149-3.129-6.564-2.725-1.456-4.923-.289-7.117,1.352q-26.038,19.479-52.119,38.9c-4.835,3.607-4.42,8.192.98,10.816,14.474,7.033,29.076,13.82,43.361,21.213,5.165,2.672,9.238,2.508,13.441-1.158a10.341,10.341,0,0,1,1.216-.877,7.066,7.066,0,0,0,3.374-6.521C182.082,167.405,182.132,157.836,182.132,148.267Zm1038.4,105.7a42.726,42.726,0,0,0,4.86,14.292c7.41,13.44,19.14,20.675,34.08,23.158a55.243,55.243,0,0,0,29.8-2.743,40.7,40.7,0,0,0,18.4-14.1c1.12-1.529,1.95-1.854,3.65-.848q7.755,4.578,15.7,8.842c1.85,1,1.82,1.924.7,3.471a65.817,65.817,0,0,1-32.83,24.294,82.308,82.308,0,0,1-39.09,3.032,70.93,70.93,0,0,1-30.5-11.888,65.66,65.66,0,0,1-25.75-35.786,75.589,75.589,0,0,1-2.63-32.824c3.2-22.753,14.13-40.654,34.52-52.107,14.64-8.224,30.59-10.739,47.02-8.138,22.6,3.579,38.92,16.208,49.1,36.581a75.762,75.762,0,0,1,7.61,40.686c-0.34,4.086-.4,4.082-4.42,4.082H1220.53Zm45.38-20.657c14.28,0,28.56-.024,42.84.027,2.03,0.007,2.81-.372,2.36-2.689-3.32-17.371-15.05-32.737-35.64-35.972-10.97-1.725-21.49-.429-31.37,4.653-12.62,6.49-19.87,17.091-23.01,30.7-0.74,3.227-.77,3.273,2.47,3.274Q1244.74,233.321,1265.91,233.313ZM470.861,121.261c1.137-.108,1.934-0.246,2.731-0.248,7.187-.017,14.376.058,21.562-0.055a3.1,3.1,0,0,1,3.426,2.456q14.229,40.989,28.52,81.955,12.391,35.558,24.816,71.1c0.242,0.694.633,1.337,1.256,2.63,1.431-4,2.7-7.468,3.913-10.954q12.7-36.5,25.371-73.014,12.472-35.922,24.906-71.858c0.488-1.415,1.1-2.3,2.775-2.288,7.856,0.048,15.712.022,23.569,0.039a10.614,10.614,0,0,1,1.636.332c-0.937,2.752-1.791,5.391-2.73,8q-21.822,60.659-43.665,121.308-10.435,28.976-20.866,57.951a3.15,3.15,0,0,1-3.5,2.4c-7.771-.087-15.545-0.073-23.318-0.011a3.1,3.1,0,0,1-3.463-2.4q-12.075-33.948-24.319-67.837-15.381-42.829-30.754-85.661-5.562-15.489-11.119-30.978C471.331,123.356,471.188,122.536,470.861,121.261ZM1085.21,193.6c0.45-.527.96-1.022,1.37-1.585,11.32-15.552,27.17-20.994,45.74-20.138,9.84,0.454,19.1,2.959,27.37,8.534,10.4,7.009,16.54,16.9,19.74,28.8a76.91,76.91,0,0,1,2.25,20.271q0,38.949,0,77.9c0,3.591-.01,3.6-3.62,3.6q-8.145.006-16.29,0c-3.64,0-3.65-.007-3.65-3.558q-0.015-38.574-.01-77.148c-0.01-6.966-.83-13.8-4.12-20.093-4.58-8.768-12.01-13.467-21.65-15.226a44.322,44.322,0,0,0-24.84,2.293c-11.76,4.689-18.34,13.9-20.98,25.855a83.8,83.8,0,0,0-1.84,17.311c-0.2,22.385-.08,44.774-0.08,67.161,0,3.4-.01,3.4-3.49,3.4-5.68,0-11.37-.092-17.05.044-2.39.057-3.16-.707-3.15-3.129,0.09-19.557.05-39.115,0.05-58.673V124.637c0-3.621.01-3.629,3.55-3.634,5.68-.007,11.37.107,17.05-0.052,2.46-.069,3.09.792,3.08,3.15-0.07,22.054-.04,44.109-0.04,66.163v3.159C1084.8,193.483,1085,193.543,1085.21,193.6ZM695.823,314.375c-38.652,1.712-72-28.644-73.916-66.89-2.049-40.977,28.3-73.884,68.629-75.68,39.306-1.75,73.035,28.588,74.717,67.169C767.045,280.112,737.181,312.544,695.823,314.375Zm45.907-71.216c0.04-27.323-20.747-48.275-47.967-48.349-27.409-.075-48.237,20.748-48.263,48.253-0.026,27.391,20.708,48.321,47.915,48.37C720.779,291.482,741.69,270.589,741.73,243.159Zm134.216,49.434c-2.267,2.632-4.382,5.412-6.826,7.87-11.077,11.148-24.936,14.488-40.134,13.851-9.686-.406-18.8-2.791-26.991-8.122-10.668-6.941-17-16.9-20.277-28.988a75.028,75.028,0,0,1-2.3-19.762q0-39.2,0-78.4c0-3.78.009-3.782,3.916-3.784q8.149,0,16.3,0c3.328,0,3.347.012,3.348,3.342q0.009,38.452,0,76.9c0,5.946.546,11.816,2.7,17.408a27.625,27.625,0,0,0,19.472,17.544c10.877,2.934,21.592,2.189,31.679-2.981,9.964-5.107,15.534-13.776,17.747-24.422A93.743,93.743,0,0,0,876.429,245c0.211-22.137.083-44.277,0.087-66.416,0-3.311.013-3.318,3.3-3.321q8.4-.009,16.8,0c3.5,0,3.5.009,3.506,3.393q0.006,18.352,0,36.7,0,46.067,0,92.134c0,3.477-.007,3.486-3.441,3.491-5.684.008-11.37-.1-17.05,0.048-2.363.06-3.252-.6-3.169-3.072,0.171-5.05.052-10.111,0.052-15.168ZM1028.6,218.4c-2.04-2.913-3.66-5.662-5.7-8.042-9.91-11.523-22.78-16.15-37.716-15.471-22.8,1.037-40.972,17.077-44.62,39.71-3.477,21.57,6.054,41.98,25.474,51.578,21.174,10.464,48.8,4.731,61.942-16.683,0.96-1.565,1.76-1.578,3.16-.751,5.25,3.1,10.49,6.187,15.82,9.135,1.83,1.014,2.04,1.938.95,3.678a67.276,67.276,0,0,1-33.17,27.756c-31.2,12.222-69.685,2.57-88.427-28.844-7.863-13.179-10.868-27.572-9.778-42.861,1.117-15.684,6.527-29.647,16.832-41.583,10.682-12.37,24.231-19.834,40.319-22.9a72.563,72.563,0,0,1,29.124.166c18.86,4.069,33.74,13.952,43.59,30.771,1.81,3.1,1.75,3.154-1.45,4.994C1039.53,212.166,1034.1,215.255,1028.6,218.4Zm346.47-21.455c0.85-1.133,1.32-1.635,1.66-2.214,8.52-14.708,21.76-21.157,38.34-21.818,1.8-.071,2.55.434,2.52,2.357q-0.135,9.732,0,19.469c0.03,2.023-.58,2.745-2.69,2.747a42.741,42.741,0,0,0-21.85,5.449c-10.56,6.128-15.78,15.727-17.39,27.431a100.372,100.372,0,0,0-.72,13.436c-0.07,21.134-.03,42.268-0.04,63.4,0,3.766,0,3.77-3.66,3.773-5.68,0-11.36-.069-17.04.033-2.17.039-2.91-.718-2.91-2.9q0.06-65.025,0-130.049c-0.01-2.214.79-2.881,2.93-2.843,5.93,0.107,11.87.149,17.8-.017,2.45-.069,2.96.918,2.92,3.078-0.11,5.156-.04,10.317-0.03,15.475C1374.91,194.553,1374.99,195.349,1375.07,196.944Z" transform="translate(-29.688 -33.469)"/>
</svg>
