<svg width="20" height="20" viewBox="0 0 20 20" fill="none" xmlns="http://www.w3.org/2000/svg">
<path d="M10.0001 6.87573C8.2798 6.87573 6.87589 8.27964 6.87589 9.99995C6.87589 11.7203 8.2798 13.1242 10.0001 13.1242C11.7204 13.1242 13.1243 11.7203 13.1243 9.99995C13.1243 8.27964 11.7204 6.87573 10.0001 6.87573ZM19.3704 9.99995C19.3704 8.7062 19.3821 7.42417 19.3095 6.13276C19.2368 4.63276 18.8946 3.30151 17.7978 2.20464C16.6985 1.10542 15.3696 0.765577 13.8696 0.692921C12.5759 0.620265 11.2939 0.631984 10.0025 0.631984C8.7087 0.631984 7.42667 0.620265 6.13527 0.692921C4.63527 0.765577 3.30402 1.10776 2.20714 2.20464C1.10792 3.30386 0.76808 4.63276 0.695424 6.13276C0.622767 7.42651 0.634486 8.70855 0.634486 9.99995C0.634486 11.2914 0.622767 12.5757 0.695424 13.8671C0.76808 15.3671 1.11027 16.6984 2.20714 17.7953C3.30636 18.8945 4.63527 19.2343 6.13527 19.307C7.42902 19.3796 8.71105 19.3679 10.0025 19.3679C11.2962 19.3679 12.5782 19.3796 13.8696 19.307C15.3696 19.2343 16.7009 18.8921 17.7978 17.7953C18.897 16.696 19.2368 15.3671 19.3095 13.8671C19.3845 12.5757 19.3704 11.2937 19.3704 9.99995ZM10.0001 14.807C7.33995 14.807 5.19308 12.6601 5.19308 9.99995C5.19308 7.3398 7.33995 5.19292 10.0001 5.19292C12.6603 5.19292 14.8071 7.3398 14.8071 9.99995C14.8071 12.6601 12.6603 14.807 10.0001 14.807ZM15.004 6.1187C14.3829 6.1187 13.8814 5.61714 13.8814 4.99605C13.8814 4.37495 14.3829 3.87339 15.004 3.87339C15.6251 3.87339 16.1267 4.37495 16.1267 4.99605C16.1269 5.14353 16.0979 5.2896 16.0416 5.42589C15.9852 5.56218 15.9026 5.68601 15.7983 5.7903C15.694 5.89458 15.5701 5.97727 15.4339 6.03362C15.2976 6.08998 15.1515 6.11889 15.004 6.1187Z" fill="#F9FAFC"/>
</svg>
