<svg width="44" height="31" viewBox="0 0 44 31" fill="none" xmlns="http://www.w3.org/2000/svg">
<path d="M5.89297 11.051L0.296893 8.31998C0.206352 8.2621 0.13174 8.18241 0.0798772 8.0882C0.0280143 7.99399 0.000554656 7.88826 8.3152e-06 7.78067C-0.000538026 7.67309 0.0258464 7.56709 0.0767497 7.47235C0.127653 7.37761 0.201452 7.29717 0.2914 7.23837L6.58506 2.50698C6.68245 2.44339 6.7952 2.40741 6.91135 2.40284C7.02751 2.39827 7.14273 2.42529 7.24479 2.48103C7.34685 2.53677 7.43194 2.61914 7.49102 2.71941C7.5501 2.81968 7.58097 2.93411 7.58036 3.05054V10.0464C7.57742 10.1535 7.54921 10.2584 7.49804 10.3525C7.44687 10.4466 7.37419 10.5272 7.28595 10.5878C7.10468 10.7209 6.77402 10.9421 6.58726 11.0499C6.48284 11.114 6.36277 11.1481 6.24027 11.1483C6.11777 11.1485 5.9976 11.1148 5.89297 11.051ZM16.3403 30.2505L9.63907 25.7876C9.50859 25.6993 9.40171 25.5803 9.32778 25.4411C9.25386 25.3018 9.21514 25.1465 9.21502 24.9888V0.95332C9.21474 0.780897 9.26123 0.611637 9.34953 0.46362C9.43782 0.315602 9.5646 0.194388 9.71632 0.112926C9.86804 0.031463 10.039 -0.00718827 10.211 0.00110063C10.3829 0.00938952 10.5494 0.0643072 10.6926 0.159987L16.7446 4.17507C17.0738 4.3938 17.3439 4.69072 17.5308 5.03936C17.7177 5.388 17.8155 5.77754 17.8157 6.17325V29.4583C17.8159 29.6304 17.7694 29.7994 17.6812 29.9471C17.593 30.0949 17.4664 30.2159 17.315 30.2972C17.1635 30.3785 16.9929 30.4171 16.8212 30.4089C16.6495 30.4007 16.4833 30.346 16.3403 30.2505Z" fill="#101218"/>
<path d="M23.689 10.1383V11.5291C23.689 11.5399 23.6932 11.5503 23.7009 11.5579C23.7085 11.5656 23.7188 11.5698 23.7296 11.5698H26.7539C26.7593 11.5697 26.7647 11.5706 26.7697 11.5726C26.7747 11.5746 26.7792 11.5776 26.783 11.5814C26.7868 11.5852 26.7898 11.5898 26.7918 11.5948C26.7938 11.5998 26.7947 11.6052 26.7946 11.6106V13.513C26.7946 13.5238 26.7903 13.5342 26.7827 13.5418C26.7751 13.5494 26.7647 13.5537 26.7539 13.5537H23.7296C23.7242 13.5536 23.7189 13.5545 23.7139 13.5565C23.7089 13.5585 23.7043 13.5615 23.7005 13.5653C23.6967 13.5691 23.6937 13.5737 23.6917 13.5787C23.6897 13.5837 23.6888 13.589 23.689 13.5944V15.9271C23.6887 15.9378 23.6843 15.948 23.6767 15.9556C23.6692 15.9632 23.659 15.9675 23.6483 15.9678H21.3578C21.347 15.9678 21.3367 15.9635 21.3291 15.9559C21.3214 15.9483 21.3172 15.9379 21.3172 15.9271V8.0334C21.317 8.02802 21.318 8.02265 21.3199 8.01765C21.3219 8.01264 21.3249 8.00809 21.3287 8.00428C21.3325 8.00047 21.3371 7.99747 21.3421 7.99548C21.3471 7.99349 21.3524 7.99254 21.3578 7.99269H27.5504C27.5557 7.99269 27.5609 7.99375 27.5658 7.99581C27.5707 7.99787 27.5751 8.00088 27.5788 8.00468C27.5824 8.00848 27.5853 8.01297 27.5873 8.01791C27.5892 8.02284 27.5901 8.02811 27.5899 8.0334V10.0569C27.5901 10.0622 27.5892 10.0675 27.5873 10.0724C27.5853 10.0773 27.5824 10.0818 27.5788 10.0856C27.5751 10.0894 27.5707 10.0924 27.5658 10.0945C27.5609 10.0966 27.5557 10.0976 27.5504 10.0976H23.7296C23.7188 10.0976 23.7085 10.1019 23.7009 10.1095C23.6932 10.1172 23.689 10.1275 23.689 10.1383Z" fill="#101218"/>
<path d="M27.5942 11.9789C27.5942 9.61985 29.4618 7.80762 31.8149 7.80762C34.168 7.80762 36.0334 9.61985 36.0334 11.9789C36.0334 14.338 34.1658 16.1503 31.8127 16.1503C29.4596 16.1503 27.5942 14.338 27.5942 11.9789ZM33.7605 11.9789C33.7605 10.8786 32.9409 10.0413 31.8149 10.0413C30.6889 10.0413 29.8694 10.8731 29.8694 11.9789C29.8694 13.0848 30.6889 13.9166 31.8149 13.9166C32.9409 13.9166 33.7605 13.0848 33.7605 11.9789Z" fill="#101218"/>
<path d="M39.3653 13.4492H38.8611C38.8503 13.4492 38.8399 13.4535 38.8323 13.4611C38.8247 13.4688 38.8204 13.4791 38.8204 13.4899V15.9106C38.8204 15.9159 38.8194 15.9212 38.8173 15.9261C38.8152 15.9309 38.8122 15.9353 38.8084 15.939C38.8047 15.9427 38.8002 15.9456 38.7952 15.9476C38.7903 15.9495 38.785 15.9504 38.7798 15.9502H36.5826C36.5774 15.9504 36.5721 15.9495 36.5672 15.9476C36.5622 15.9456 36.5578 15.9427 36.554 15.939C36.5502 15.9353 36.5472 15.9309 36.5451 15.9261C36.543 15.9212 36.542 15.9159 36.542 15.9106V8.01912C36.542 8.01382 36.543 8.00858 36.5451 8.0037C36.5472 7.99882 36.5502 7.99441 36.554 7.99071C36.5578 7.98702 36.5622 7.98413 36.5672 7.9822C36.5721 7.98028 36.5774 7.97936 36.5826 7.97951H39.8684C41.4548 7.97951 42.7807 9.26689 42.7423 10.8547C42.7379 11.2789 42.6258 11.695 42.4165 12.0639C42.2072 12.4327 41.9076 12.7421 41.5459 12.9629C41.5373 12.9679 41.531 12.9761 41.5281 12.9857C41.5252 12.9953 41.5261 13.0056 41.5306 13.0146L43.0521 15.8974C43.0553 15.9035 43.0569 15.9103 43.0567 15.9172C43.0566 15.924 43.0546 15.9307 43.0511 15.9366C43.0475 15.9425 43.0425 15.9474 43.0365 15.9507C43.0305 15.9541 43.0238 15.9558 43.0169 15.9557H40.677C40.6695 15.9559 40.6621 15.9539 40.6557 15.95C40.6492 15.9461 40.6441 15.9405 40.6407 15.9337L39.4004 13.4712C39.3971 13.4647 39.3921 13.4593 39.3859 13.4554C39.3797 13.4515 39.3726 13.4494 39.3653 13.4492ZM38.816 11.517C38.8163 11.5278 38.8207 11.538 38.8282 11.5455C38.8358 11.5531 38.846 11.5575 38.8567 11.5578H39.6806C40.1585 11.5688 40.4661 11.2948 40.4661 10.8282C40.4661 10.3617 40.1585 10.0756 39.6806 10.0756H38.8567C38.846 10.0759 38.8358 10.0803 38.8282 10.0879C38.8207 10.0954 38.8163 10.1056 38.816 10.1163V11.517Z" fill="#101218"/>
<path d="M25.9672 21.8973V24.9188H23.7635V21.8973C23.7651 21.8915 23.7651 21.8854 23.7635 21.8797L21.3301 16.9997C21.3269 16.9936 21.3252 16.9867 21.3255 16.9797C21.3257 16.9728 21.3277 16.966 21.3314 16.9601C21.3351 16.9542 21.3403 16.9493 21.3464 16.9461C21.3525 16.9428 21.3594 16.9412 21.3664 16.9414H23.7195C23.7275 16.9415 23.7354 16.9439 23.742 16.9484C23.7487 16.9529 23.7538 16.9593 23.7569 16.9667L24.8324 19.4535C24.8355 19.4608 24.8407 19.467 24.8473 19.4714C24.854 19.4758 24.8618 19.4781 24.8697 19.4781C24.8777 19.4781 24.8854 19.4758 24.8921 19.4714C24.8987 19.467 24.9039 19.4608 24.9071 19.4535L26.0155 16.9656C26.0188 16.9585 26.0241 16.9524 26.0307 16.9481C26.0373 16.9439 26.045 16.9415 26.0529 16.9414H28.406C28.4129 16.9417 28.4196 16.9437 28.4255 16.9471C28.4314 16.9506 28.4364 16.9555 28.44 16.9614C28.4436 16.9673 28.4457 16.974 28.4461 16.9808C28.4465 16.9877 28.4451 16.9946 28.4422 17.0008L25.9705 21.8775C25.9679 21.8838 25.9668 21.8905 25.9672 21.8973Z" fill="#101218"/>
<path d="M27.5745 20.928C27.5745 18.5689 29.442 16.7578 31.7962 16.7578C34.1505 16.7578 36.0169 18.5689 36.0169 20.928C36.0169 23.2871 34.1494 25.0994 31.7962 25.0994C29.4431 25.0994 27.5745 23.2871 27.5745 20.928ZM33.7418 20.928C33.7418 19.8277 32.9223 18.9915 31.7962 18.9915C30.6702 18.9915 29.8507 19.8233 29.8507 20.928C29.8507 22.0328 30.6691 22.8657 31.7962 22.8657C32.9234 22.8657 33.7385 22.0339 33.7385 20.928H33.7418Z" fill="#101218"/>
<path d="M36.5454 22.2507V16.9802C36.5454 16.9694 36.5497 16.959 36.5573 16.9514C36.5649 16.9437 36.5753 16.9395 36.5861 16.9395H38.7283C38.739 16.9395 38.7494 16.9437 38.757 16.9514C38.7646 16.959 38.7689 16.9694 38.7689 16.9802V21.8623C38.7689 22.4125 39.1787 22.8889 39.8806 22.8889C40.5826 22.8889 40.9583 22.4092 40.9583 21.8623V16.9802C40.9586 16.9695 40.963 16.9593 40.9705 16.9517C40.9781 16.9441 40.9883 16.9397 40.999 16.9395H43.1741C43.1848 16.9397 43.195 16.9441 43.2026 16.9517C43.2101 16.9593 43.2145 16.9695 43.2148 16.9802V22.2507C43.2148 23.9595 41.857 25.0995 39.8795 25.0995C37.9021 25.0995 36.5454 23.9595 36.5454 22.2507Z" fill="#101218"/>
</svg>
