<svg width="20" height="14" viewBox="0 0 20 14" fill="none" xmlns="http://www.w3.org/2000/svg">
<path d="M19.5808 11.09L18.4908 3.43C18.2108 1.46 16.5208 0 14.5308 0H5.4708C3.4808 0 1.7908 1.46 1.5108 3.43L0.420798 11.09C0.200798 12.63 1.3908 14 2.9408 14C3.6208 14 4.2608 13.73 4.7408 13.25L7.0008 11H13.0008L15.2508 13.25C15.7308 13.73 16.3808 14 17.0508 14C18.6108 14 19.8008 12.63 19.5808 11.09ZM9.0008 6H7.0008V8H6.0008V6H4.0008V5H6.0008V3H7.0008V5H9.0008V6ZM13.0008 5C12.4508 5 12.0008 4.55 12.0008 4C12.0008 3.45 12.4508 3 13.0008 3C13.5508 3 14.0008 3.45 14.0008 4C14.0008 4.55 13.5508 5 13.0008 5ZM15.0008 8C14.4508 8 14.0008 7.55 14.0008 7C14.0008 6.45 14.4508 6 15.0008 6C15.5508 6 16.0008 6.45 16.0008 7C16.0008 7.55 15.5508 8 15.0008 8Z" fill="#A1A7B5"/>
</svg>
