<svg width="16" height="16" viewBox="0 0 16 16" fill="none" xmlns="http://www.w3.org/2000/svg">
<path d="M13.7102 0H2.28979C1.02501 0 0 1.02501 0 2.28979V13.7102C0 14.975 1.02501 16 2.28979 16H13.7102C14.9745 16 16 14.975 16 13.7102V2.28979C16 1.02501 14.975 0 13.7102 0ZM6.6078 6.30316C6.6078 6.38516 6.56317 6.4573 6.49726 6.50556C6.42927 6.55539 6.30575 6.63842 6.23517 6.67839C6.15317 6.7251 6.05404 6.72977 5.97515 6.67839L3.87791 5.65649C3.73051 5.56255 3.72948 5.34769 3.87583 5.25168L6.23517 3.48295C6.39554 3.37812 6.60832 3.49282 6.60832 3.68432V6.30212L6.6078 6.30316ZM10.4442 13.5675C10.4442 13.8514 10.1276 14.0211 9.89147 13.8638L7.38058 12.1937C7.28146 12.1278 7.22177 12.0141 7.22177 11.8948C7.22177 9.64546 7.22177 2.90065 7.22177 2.90065C7.22177 2.61676 7.53732 2.44705 7.77398 2.60378L10.0425 4.10626C10.2932 4.27234 10.4442 4.55312 10.4442 4.85361V13.5675Z" fill="#A1A7B5"/>
</svg>
