<svg width="32" height="32" viewBox="0 0 32 32" fill="none" xmlns="http://www.w3.org/2000/svg">
<path d="M27.4208 0H4.57924C2.05062 0 0 2.04987 0 4.57924V27.4208C0 29.9501 2.05062 32 4.57924 32H27.4208C29.9501 32 32 29.9501 32 27.4208V4.57924C32 2.05062 29.9501 0 27.4208 0ZM13.2163 12.6072C13.226 12.7338 13.1271 12.9151 12.9952 13.0125C12.8462 13.1234 12.6124 13.2777 12.4715 13.3586C12.3427 13.4605 12.1097 13.4605 11.9508 13.3594L7.75594 11.3155C7.46075 11.06 7.4585 10.6974 7.75145 10.5063L12.47 6.96851C12.8821 6.80818 13.2163 6.98874 13.2163 7.37159V12.6079V12.6072ZM20.8898 27.1368C20.7519 27.7789 20.2567 28.0441 19.7839 27.7294L14.7619 24.3887C14.5641 24.2568 14.445 24.029 14.445 23.7908V5.51727C14.5821 5.03252 15.0766 4.89466 15.5493 5.20784L20.0866 8.21372C20.5302 8.43773 20.8898 9.10754 20.8898 9.70841V27.1368Z" fill="#111418"/>
</svg>
