<svg width="40" height="40" viewBox="0 0 40 40" fill="none" xmlns="http://www.w3.org/2000/svg">
<circle cx="20" cy="20" r="20" fill="white"/>
<path d="M9.67792 17.268L5.99751 15.4719C5.93796 15.4338 5.88889 15.3814 5.85478 15.3194C5.82067 15.2575 5.80261 15.1879 5.80225 15.1172C5.80189 15.0464 5.81924 14.9767 5.85272 14.9144C5.8862 14.8521 5.93474 14.7992 5.99389 14.7605L10.1331 11.6488C10.1971 11.607 10.2713 11.5833 10.3477 11.5803C10.4241 11.5773 10.4999 11.5951 10.567 11.6317C10.6341 11.6684 10.6901 11.7226 10.7289 11.7885C10.7678 11.8544 10.7881 11.9297 10.7877 12.0063V16.6073C10.7858 16.6777 10.7672 16.7467 10.7335 16.8086C10.6999 16.8705 10.6521 16.9235 10.5941 16.9633C10.4748 17.0509 10.2574 17.1964 10.1345 17.2673C10.0659 17.3095 9.9869 17.3318 9.90634 17.332C9.82577 17.3321 9.74673 17.31 9.67792 17.268ZM16.5489 29.8951L12.1417 26.96C12.0558 26.9019 11.9855 26.8236 11.9369 26.732C11.8883 26.6404 11.8628 26.5383 11.8628 26.4346V10.627C11.8626 10.5136 11.8932 10.4023 11.9512 10.3049C12.0093 10.2076 12.0927 10.1278 12.1925 10.0743C12.2922 10.0207 12.4047 9.99527 12.5178 10.0007C12.6309 10.0062 12.7403 10.0423 12.8345 10.1052L16.8148 12.7459C17.0313 12.8897 17.209 13.085 17.3319 13.3143C17.4548 13.5436 17.5191 13.7998 17.5192 14.06V29.3741C17.5193 29.4873 17.4888 29.5984 17.4308 29.6956C17.3728 29.7927 17.2895 29.8723 17.1899 29.9258C17.0903 29.9793 16.9781 30.0047 16.8652 29.9993C16.7523 29.9939 16.643 29.9579 16.5489 29.8951Z" fill="#FF5F00"/>
<path d="M21.3817 16.6677V17.5824C21.3817 17.5895 21.3845 17.5964 21.3895 17.6014C21.3945 17.6064 21.4013 17.6092 21.4084 17.6092H23.3974C23.401 17.6091 23.4045 17.6097 23.4078 17.611C23.4111 17.6124 23.4141 17.6143 23.4166 17.6168C23.4191 17.6193 23.421 17.6223 23.4223 17.6256C23.4237 17.6289 23.4243 17.6324 23.4242 17.636V18.8872C23.4242 18.8943 23.4214 18.9011 23.4163 18.9061C23.4113 18.9111 23.4045 18.914 23.3974 18.914H21.4084C21.4049 18.9139 21.4013 18.9145 21.3981 18.9158C21.3948 18.9171 21.3918 18.9191 21.3893 18.9216C21.3868 18.9241 21.3848 18.9271 21.3835 18.9304C21.3822 18.9337 21.3816 18.9372 21.3817 18.9407V20.4749C21.3815 20.4819 21.3786 20.4886 21.3736 20.4936C21.3687 20.4986 21.362 20.5015 21.3549 20.5017H19.8485C19.8414 20.5017 19.8346 20.4989 19.8296 20.4938C19.8246 20.4888 19.8218 20.482 19.8218 20.4749V15.2834C19.8217 15.2798 19.8223 15.2763 19.8236 15.273C19.8249 15.2697 19.8269 15.2667 19.8294 15.2642C19.8319 15.2617 19.8349 15.2597 19.8382 15.2584C19.8415 15.2571 19.845 15.2565 19.8485 15.2566H23.9213C23.9247 15.2566 23.9282 15.2573 23.9314 15.2587C23.9346 15.26 23.9375 15.262 23.9399 15.2645C23.9423 15.267 23.9442 15.2699 23.9455 15.2732C23.9468 15.2764 23.9474 15.2799 23.9473 15.2834V16.6142C23.9474 16.6177 23.9468 16.6211 23.9455 16.6244C23.9442 16.6276 23.9423 16.6306 23.9399 16.6331C23.9375 16.6356 23.9346 16.6376 23.9314 16.6389C23.9282 16.6403 23.9247 16.641 23.9213 16.641H21.4084C21.4013 16.641 21.3945 16.6438 21.3895 16.6488C21.3845 16.6538 21.3817 16.6606 21.3817 16.6677Z" fill="#FF5F00"/>
<path d="M23.9507 17.8784C23.9507 16.3269 25.1789 15.135 26.7265 15.135C28.2741 15.135 29.5009 16.3269 29.5009 17.8784C29.5009 19.4299 28.2727 20.6218 26.7251 20.6218C25.1775 20.6218 23.9507 19.4299 23.9507 17.8784ZM28.0061 17.8784C28.0061 17.1547 27.4671 16.604 26.7265 16.604C25.986 16.604 25.447 17.1511 25.447 17.8784C25.447 18.6057 25.986 19.1528 26.7265 19.1528C27.4671 19.1528 28.0061 18.6057 28.0061 17.8784Z" fill="#FF5F00"/>
<path d="M31.6918 18.8451H31.3602C31.3531 18.8451 31.3463 18.8479 31.3413 18.853C31.3362 18.858 31.3334 18.8648 31.3334 18.8719V20.4639C31.3334 20.4674 31.3327 20.4709 31.3314 20.4741C31.33 20.4773 31.328 20.4802 31.3256 20.4826C31.3231 20.4851 31.3201 20.487 31.3169 20.4882C31.3136 20.4895 31.3102 20.4901 31.3067 20.49H29.8617C29.8582 20.4901 29.8548 20.4895 29.8515 20.4882C29.8483 20.487 29.8453 20.4851 29.8428 20.4826C29.8403 20.4802 29.8384 20.4773 29.837 20.4741C29.8357 20.4709 29.835 20.4674 29.835 20.4639V15.2739C29.835 15.2704 29.8357 15.2669 29.837 15.2637C29.8384 15.2605 29.8403 15.2576 29.8428 15.2552C29.8453 15.2528 29.8483 15.2508 29.8515 15.2496C29.8548 15.2483 29.8582 15.2477 29.8617 15.2478H32.0227C33.066 15.2478 33.938 16.0945 33.9128 17.1387C33.9099 17.4177 33.8362 17.6914 33.6985 17.934C33.5609 18.1766 33.3638 18.3801 33.126 18.5253C33.1203 18.5286 33.1161 18.534 33.1142 18.5403C33.1123 18.5466 33.1129 18.5534 33.1158 18.5593L34.1165 20.4553C34.1186 20.4592 34.1197 20.4637 34.1196 20.4682C34.1195 20.4728 34.1182 20.4772 34.1158 20.481C34.1135 20.4849 34.1102 20.4881 34.1063 20.4903C34.1023 20.4925 34.0979 20.4936 34.0934 20.4936H32.5545C32.5495 20.4937 32.5447 20.4924 32.5404 20.4898C32.5362 20.4873 32.5328 20.4836 32.5306 20.4791L31.7149 18.8596C31.7127 18.8553 31.7094 18.8517 31.7053 18.8492C31.7013 18.8466 31.6966 18.8452 31.6918 18.8451ZM31.3305 17.5744C31.3307 17.5814 31.3336 17.5881 31.3386 17.5931C31.3435 17.5981 31.3502 17.601 31.3573 17.6012H31.8991C32.2134 17.6084 32.4157 17.4282 32.4157 17.1214C32.4157 16.8145 32.2134 16.6264 31.8991 16.6264H31.3573C31.3502 16.6266 31.3435 16.6294 31.3386 16.6344C31.3336 16.6394 31.3307 16.6461 31.3305 16.6532V17.5744Z" fill="#FF5F00"/>
<path d="M22.8799 24.4015V26.3886H21.4306V24.4015C21.4317 24.3977 21.4317 24.3937 21.4306 24.3899L19.8302 21.1805C19.8281 21.1764 19.827 21.1719 19.8272 21.1673C19.8273 21.1627 19.8287 21.1583 19.8311 21.1544C19.8335 21.1505 19.8369 21.1473 19.8409 21.1451C19.845 21.143 19.8495 21.1419 19.8541 21.1421H21.4017C21.407 21.1421 21.4121 21.1437 21.4165 21.1467C21.4208 21.1497 21.4242 21.1539 21.4262 21.1588L22.1336 22.7942C22.1356 22.799 22.1391 22.8031 22.1434 22.806C22.1478 22.8089 22.1529 22.8104 22.1581 22.8104C22.1634 22.8104 22.1685 22.8089 22.1728 22.806C22.1772 22.8031 22.1806 22.799 22.1827 22.7942L22.9117 21.158C22.9139 21.1533 22.9173 21.1493 22.9217 21.1465C22.926 21.1437 22.9311 21.1422 22.9363 21.1421H24.4839C24.4884 21.1423 24.4928 21.1436 24.4967 21.1459C24.5006 21.1482 24.5039 21.1514 24.5062 21.1552C24.5086 21.1591 24.51 21.1635 24.5102 21.168C24.5105 21.1726 24.5096 21.1771 24.5077 21.1812L22.8821 24.3884C22.8804 24.3926 22.8797 24.397 22.8799 24.4015Z" fill="#FF5F00"/>
<path d="M23.9375 23.7639C23.9375 22.2124 25.1658 21.0212 26.7141 21.0212C28.2624 21.0212 29.4899 22.2124 29.4899 23.7639C29.4899 25.3154 28.2617 26.5073 26.7141 26.5073C25.1665 26.5073 23.9375 25.3154 23.9375 23.7639ZM27.9936 23.7639C27.9936 23.0402 27.4546 22.4903 26.7141 22.4903C25.9735 22.4903 25.4345 23.0374 25.4345 23.7639C25.4345 24.4905 25.9728 25.0383 26.7141 25.0383C27.4554 25.0383 27.9914 24.4912 27.9914 23.7639H27.9936Z" fill="#FF5F00"/>
<path d="M29.8374 24.634V21.1676C29.8374 21.1605 29.8402 21.1537 29.8452 21.1487C29.8502 21.1437 29.857 21.1409 29.8641 21.1409H31.273C31.2801 21.1409 31.2869 21.1437 31.2919 21.1487C31.2969 21.1537 31.2997 21.1605 31.2997 21.1676V24.3785C31.2997 24.7403 31.5692 25.0537 32.0309 25.0537C32.4926 25.0537 32.7397 24.7382 32.7397 24.3785V21.1676C32.7399 21.1606 32.7427 21.1539 32.7477 21.1489C32.7527 21.1439 32.7594 21.1411 32.7664 21.1409H34.197C34.204 21.1411 34.2107 21.1439 34.2157 21.1489C34.2206 21.1539 34.2235 21.1606 34.2237 21.1676V24.634C34.2237 25.7578 33.3307 26.5075 32.0302 26.5075C30.7297 26.5075 29.8374 25.7578 29.8374 24.634Z" fill="#FF5F00"/>
</svg>
