<svg width="62" height="25" viewBox="0 0 62 25" fill="none" xmlns="http://www.w3.org/2000/svg">
<path d="M12.008 24.016C18.6398 24.016 24.016 18.6398 24.016 12.008C24.016 5.37615 18.6398 0 12.008 0C5.37619 0 0 5.37615 0 12.008C0 18.6398 5.37619 24.016 12.008 24.016Z" fill="#B2F900"/>
<path fill-rule="evenodd" clip-rule="evenodd" d="M35.9579 5.47656H33.4271V18.9923H35.9579V5.47656ZM59.4694 18.9928V14.2003C59.4694 13.4465 59.0386 12.6926 58.1232 12.7465C57.1001 12.7465 56.7231 13.5003 56.7231 14.2003V18.9928H54.1923V5.47705H56.777V10.9157L57.2078 10.6464C57.6924 10.3772 58.2309 10.2156 58.8232 10.2156C60.3848 10.2156 62.0002 11.3464 62.0002 13.5003V18.9928H59.4694ZM49.9395 19.1805C48.1625 19.1805 46.2778 17.7804 45.9009 17.4574L47.1932 15.7881C47.5163 16.0573 48.5933 16.865 49.7779 16.9189H49.8318C50.4779 16.9189 50.8549 16.7573 50.9626 16.5958C51.0164 16.5419 51.0703 16.4342 51.0164 16.3804C51.0164 16.2727 50.9626 16.2189 50.9087 16.165C50.7472 16.0573 50.3702 15.9496 49.6164 15.7881C47.5163 15.3573 46.4394 14.388 46.4394 12.988C46.4394 11.6418 47.7317 10.2418 50.1549 10.2418C51.2857 10.2418 52.4165 10.6187 53.3319 11.2649L53.4934 11.4264L52.2011 13.3111L51.9857 13.1496C51.4472 12.7726 50.801 12.5572 50.101 12.5034C49.5087 12.5034 49.0779 12.6649 48.9702 12.8265C48.9164 12.8803 48.8625 12.988 48.9164 13.0419C48.9164 13.1496 48.9702 13.2034 49.0241 13.2572C49.2395 13.4188 49.6702 13.5265 50.5856 13.688C52.3626 14.065 53.4934 14.6573 53.4934 16.4343C53.6011 18.0497 52.0395 19.1805 49.9395 19.1805ZM42.9705 10.4302V11.0226L42.5397 10.7533C42.0012 10.4302 41.4089 10.2148 40.7627 10.2687C38.4473 10.2687 36.6165 12.2072 36.6165 14.738C36.6165 17.2689 38.4473 19.2074 40.7627 19.2074C41.4089 19.2074 42.0012 19.0458 42.5397 18.7228L42.9705 18.4535V19.0458H45.3398V10.4302H42.9705ZM41.032 16.6765C39.955 16.6765 39.0935 15.815 39.0935 14.738C39.0935 13.6611 39.955 12.7457 41.032 12.7457C42.1089 12.7457 42.9705 13.6072 42.9705 14.6842C42.9705 15.815 42.1089 16.6765 41.032 16.6765ZM27.7855 12.6924V18.9926H30.2625V12.7463H31.9317V10.4847H30.2625V8.97694C30.2625 8.22308 30.8009 7.7923 31.2856 7.7923H32.5241V5.47685H31.2856C29.1855 5.47685 27.7855 6.76919 27.7855 8.97694V10.4847H26.1162V12.6924H27.7855Z" fill="white"/>
<path d="M19.1698 10.016C18.4159 9.42368 17.6621 8.61594 17.7698 7.43129C18.2006 7.3236 18.5775 7.00051 18.7929 6.62358C19.0621 6.13895 18.9544 5.60049 18.5775 5.22356C18.5237 5.16971 18.4698 5.16971 18.4698 5.22356L18.4159 5.27739C18.4159 5.60048 18.4698 6.24667 17.6621 6.40821C16.8006 6.56975 15.3467 6.35435 14.8082 5.92357C14.3235 5.49279 14.3236 5.00815 14.7005 4.20044C14.7005 4.14659 14.7005 4.09277 14.6466 4.09277H14.5928C13.9466 4.36201 13.5158 5.00818 13.5158 5.7082C13.5158 6.35437 13.8928 6.94668 14.4851 7.21592C11.7927 8.02363 10.7157 7.05437 7.64643 7.00052C5.1156 6.94667 4.52328 9.04672 4.68482 11.2006C4.73867 12.0622 4.79257 12.9237 5.00796 13.7315C5.1695 14.2699 5.4387 14.593 5.4387 15.3469C5.4387 15.9392 5.331 16.1546 5.4387 16.6931C5.4387 16.8008 5.54641 16.9085 5.6541 16.9085C5.92334 16.9623 6.19258 17.0162 6.46181 16.9085C6.62336 16.8546 6.67722 16.8008 6.67722 16.6931C6.40798 15.6161 6.19258 14.1622 6.46181 13.193C6.46181 13.0853 6.56951 12.9776 6.73105 12.9776C6.7849 12.9776 6.78487 12.9776 6.83872 13.0314C7.2695 13.3007 7.64647 13.6238 8.0234 14.0007C8.83112 14.9161 9.3157 16.1008 9.53109 17.2854C9.53109 17.447 9.6388 17.5546 9.7465 17.6623C10.0696 17.77 10.3927 17.77 10.7158 17.6085C10.8235 17.5546 10.8234 17.4469 10.8234 17.3931C10.5542 16.37 9.74652 15.0776 9.63883 14.0007C9.63883 13.7853 9.69268 13.7315 9.90807 13.7853C10.1235 13.8392 10.3927 13.8392 10.608 13.8392C10.6619 13.8392 10.7696 13.893 10.7696 13.9469C11.6312 14.97 12.6004 16.4777 12.4927 17.9854C12.4927 18.0931 12.5466 18.1469 12.6004 18.2008C12.8697 18.4162 12.9235 19.0085 12.9235 19.4931C12.9235 19.6008 12.9774 19.7085 13.0851 19.7085C13.462 19.8701 13.8928 19.8701 14.2697 19.7085C14.3235 19.7085 14.3774 19.6008 14.3774 19.547C14.2158 18.5777 13.462 17.77 13.6236 16.3161C13.6774 15.993 13.8928 15.5623 14.0543 14.9699C14.4312 13.5699 14.3774 13.1391 14.7543 12.3314C15.0236 11.8468 15.5621 11.1468 16.3698 11.6314C16.8005 11.9007 17.339 12.0622 17.8236 12.0083C18.5775 11.9006 19.0622 11.2545 19.2775 10.5545C19.4391 10.3391 19.3314 10.1237 19.1698 10.016Z" fill="black"/>
</svg>
