<svg width="16" height="16" viewBox="0 0 16 16" fill="none" xmlns="http://www.w3.org/2000/svg">
<path d="M5.64325 7.52871C6.39858 6.77338 7.71591 6.77338 8.47125 7.52871L8.94258 8.00004L9.88525 7.05738L9.41391 6.58604C8.78525 5.95671 7.94791 5.60938 7.05725 5.60938C6.16658 5.60938 5.32925 5.95671 4.70058 6.58604L3.28591 8.00004C2.66211 8.62585 2.31183 9.47343 2.31183 10.357C2.31183 11.2407 2.66211 12.0882 3.28591 12.714C3.59516 13.0237 3.96256 13.2693 4.36699 13.4365C4.77143 13.6038 5.20492 13.6895 5.64258 13.6887C6.08035 13.6896 6.51399 13.604 6.91855 13.4367C7.32311 13.2694 7.69061 13.0238 7.99991 12.714L8.47125 12.2427L7.52858 11.3L7.05725 11.7714C6.68156 12.1454 6.17303 12.3554 5.64291 12.3554C5.1128 12.3554 4.60427 12.1454 4.22858 11.7714C3.85425 11.3959 3.64405 10.8873 3.64405 10.357C3.64405 9.82682 3.85425 9.31822 4.22858 8.94271L5.64325 7.52871Z" fill="#1E2024"/>
<path d="M8.00008 3.28616L7.52875 3.75749L8.47141 4.70016L8.94275 4.22882C9.31843 3.85482 9.82696 3.64484 10.3571 3.64484C10.8872 3.64484 11.3957 3.85482 11.7714 4.22882C12.1457 4.60434 12.3559 5.11294 12.3559 5.64316C12.3559 6.17338 12.1457 6.68198 11.7714 7.05749L10.3567 8.47149C9.60141 9.22683 8.28408 9.22683 7.52875 8.47149L7.05741 8.00016L6.11475 8.94282L6.58608 9.41416C7.21475 10.0435 8.05208 10.3908 8.94275 10.3908C9.83341 10.3908 10.6707 10.0435 11.2994 9.41416L12.7141 8.00016C13.3379 7.37435 13.6882 6.52677 13.6882 5.64316C13.6882 4.75955 13.3379 3.91197 12.7141 3.28616C12.0884 2.66203 11.2408 2.31152 10.3571 2.31152C9.47336 2.31152 8.62572 2.66203 8.00008 3.28616Z" fill="#1E2024"/>
</svg>
